<svg width="28" height="29" viewBox="0 0 28 29" fill="none" xmlns="http://www.w3.org/2000/svg">
<path d="M13.6471 19.3334C13.3813 19.3339 13.1238 19.2356 12.9192 19.0554L6.0957 13.0138C5.86345 12.8087 5.7174 12.5139 5.68967 12.1944C5.66195 11.8749 5.75482 11.5568 5.94785 11.31C6.14089 11.0633 6.41828 10.9081 6.719 10.8786C7.01972 10.8492 7.31914 10.9478 7.55138 11.1529L13.6471 16.5663L19.7428 11.3463C19.8591 11.2459 19.9929 11.1709 20.1366 11.1257C20.2803 11.0805 20.431 11.0659 20.58 11.0827C20.729 11.0996 20.8734 11.1475 21.0049 11.2239C21.1364 11.3002 21.2524 11.4034 21.3463 11.5275C21.4504 11.6518 21.5293 11.7975 21.578 11.9557C21.6266 12.1138 21.644 12.2809 21.6291 12.4465C21.6142 12.6121 21.5672 12.7727 21.4911 12.9181C21.4151 13.0636 21.3115 13.1907 21.1871 13.2917L14.3635 19.1279C14.1531 19.2796 13.9008 19.3519 13.6471 19.3334Z" fill="#2D4759"/>
</svg>
