<svg width="32" height="32" viewBox="0 0 32 32" fill="none" xmlns="http://www.w3.org/2000/svg">
<path d="M6.66665 17.3333H22.48L17.64 23.1467C17.5279 23.2815 17.4435 23.4371 17.3916 23.6045C17.3396 23.772 17.3212 23.948 17.3373 24.1226C17.3698 24.4751 17.541 24.8003 17.8133 25.0267C18.0856 25.253 18.4366 25.3619 18.7892 25.3294C19.1418 25.2969 19.467 25.1256 19.6933 24.8533L26.36 16.8533C26.4048 16.7897 26.4449 16.7229 26.48 16.6533C26.48 16.5867 26.5466 16.5467 26.5733 16.48C26.6337 16.3271 26.6654 16.1644 26.6666 16C26.6654 15.8356 26.6337 15.6729 26.5733 15.52C26.5733 15.4533 26.5066 15.4133 26.48 15.3467C26.4449 15.2771 26.4048 15.2103 26.36 15.1467L19.6933 7.14667C19.568 6.99616 19.411 6.87512 19.2335 6.79215C19.0561 6.70919 18.8625 6.66635 18.6666 6.66667C18.3551 6.66606 18.0532 6.77456 17.8133 6.97333C17.6783 7.08527 17.5667 7.22273 17.4849 7.37786C17.4031 7.53299 17.3527 7.70274 17.3366 7.87737C17.3205 8.05201 17.339 8.2281 17.3911 8.39558C17.4431 8.56305 17.5277 8.7186 17.64 8.85333L22.48 14.6667H6.66665C6.31302 14.6667 5.97389 14.8071 5.72384 15.0572C5.47379 15.3072 5.33331 15.6464 5.33331 16C5.33331 16.3536 5.47379 16.6928 5.72384 16.9428C5.97389 17.1929 6.31302 17.3333 6.66665 17.3333Z" fill="white"/>
</svg>
