<svg width="80" height="80" viewBox="0 0 80 80" fill="none" xmlns="http://www.w3.org/2000/svg">
<path d="M44.6998 40L59.0331 25.7C59.6608 25.0723 60.0134 24.221 60.0134 23.3334C60.0134 22.4457 59.6608 21.5944 59.0331 20.9667C58.4054 20.339 57.5541 19.9864 56.6665 19.9864C55.7788 19.9864 54.9275 20.339 54.2998 20.9667L39.9998 35.3L25.6998 20.9667C25.0721 20.339 24.2208 19.9864 23.3331 19.9864C22.4455 19.9864 21.5941 20.339 20.9665 20.9667C20.3388 21.5944 19.9862 22.4457 19.9862 23.3334C19.9862 24.221 20.3388 25.0723 20.9665 25.7L35.2998 40L20.9665 54.3C20.654 54.6099 20.4061 54.9786 20.2368 55.3848C20.0676 55.791 19.9805 56.2267 19.9805 56.6667C19.9805 57.1067 20.0676 57.5424 20.2368 57.9486C20.4061 58.3548 20.654 58.7235 20.9665 59.0334C21.2763 59.3458 21.645 59.5938 22.0512 59.763C22.4574 59.9322 22.8931 60.0194 23.3331 60.0194C23.7732 60.0194 24.2089 59.9322 24.6151 59.763C25.0212 59.5938 25.3899 59.3458 25.6998 59.0334L39.9998 44.7L54.2998 59.0334C54.6097 59.3458 54.9783 59.5938 55.3845 59.763C55.7907 59.9322 56.2264 60.0194 56.6665 60.0194C57.1065 60.0194 57.5422 59.9322 57.9484 59.763C58.3546 59.5938 58.7232 59.3458 59.0331 59.0334C59.3456 58.7235 59.5935 58.3548 59.7628 57.9486C59.932 57.5424 60.0191 57.1067 60.0191 56.6667C60.0191 56.2267 59.932 55.791 59.7628 55.3848C59.5935 54.9786 59.3456 54.6099 59.0331 54.3L44.6998 40Z" fill="#4A4345"/>
</svg>
