<svg width="293" height="293" viewBox="0 0 293 293" fill="none" xmlns="http://www.w3.org/2000/svg">
<path d="M243.952 133.839H48.0604C41.6766 133.839 36.5016 139.014 36.5016 145.398V146.615C36.5016 152.998 41.6766 158.173 48.0604 158.173H243.952C250.336 158.173 255.511 152.998 255.511 146.615V145.398C255.511 139.014 250.336 133.839 243.952 133.839Z" fill="#231F20"/>
<path d="M243.952 194.675H48.0604C41.6766 194.675 36.5016 199.85 36.5016 206.234V207.451C36.5016 213.834 41.6766 219.009 48.0604 219.009H243.952C250.336 219.009 255.511 213.834 255.511 207.451V206.234C255.511 199.85 250.336 194.675 243.952 194.675Z" fill="#231F20"/>
<path d="M243.952 73.0032H48.0604C41.6766 73.0032 36.5016 78.1782 36.5016 84.562V85.7787C36.5016 92.1625 41.6766 97.3376 48.0604 97.3376H243.952C250.336 97.3376 255.511 92.1625 255.511 85.7787V84.562C255.511 78.1782 250.336 73.0032 243.952 73.0032Z" fill="#231F20"/>
</svg>
